PathFileType	4	(X/Y/Z)	/tmp/tmp5iqdz_vd/results/MarkerData/markers_smpl.trc
DataRate	CameraRate	NumFrames	NumMarkers	Units	OrigDataRate	OrigDataStartFrame	OrigNumFrames
120	120	9	41	m	120	223	597
Frame#	Time	C7			CLAV			LANK			LBHD			LBWT			LELB			LFHD			LFIN			LFRM			LFWT			LHEE			LKNE			LMT5			LSHN			LSHO			LTHI			LTOE			LUPA			LWRA			LWRB			RANK			RBAC			RBHD			RBWT			RELB			RFHD			RFIN			RFRM			RFWT			RHEE			RKNE			RMT5			RSHN			RSHO			RTHI			RTOE			RUPA			RWRA			RWRB			STRN			T10		
		X1	Y1	Z1	X2	Y2	Z2	X3	Y3	Z3	X4	Y4	Z4	X5	Y5	Z5	X6	Y6	Z6	X7	Y7	Z7	X8	Y8	Z8	X9	Y9	Z9	X10	Y10	Z10	X11	Y11	Z11	X12	Y12	Z12	X13	Y13	Z13	X14	Y14	Z14	X15	Y15	Z15	X16	Y16	Z16	X17	Y17	Z17	X18	Y18	Z18	X19	Y19	Z19	X20	Y20	Z20	X21	Y21	Z21	X22	Y22	Z22	X23	Y23	Z23	X24	Y24	Z24	X25	Y25	Z25	X26	Y26	Z26	X27	Y27	Z27	X28	Y28	Z28	X29	Y29	Z29	X30	Y30	Z30	X31	Y31	Z31	X32	Y32	Z32	X33	Y33	Z33	X34	Y34	Z34	X35	Y35	Z35	X36	Y36	Z36	X37	Y37	Z37	X38	Y38	Z38	X39	Y39	Z39	X40	Y40	Z40	X41	Y41	Z41

224	1.85833	-2.04838	1.52557	-0.53406	-1.94139	1.44913	-0.50166	-1.89726	0.11858	-0.71462	-1.93634	1.65495	-0.569549	-2.17244	1.03087	-0.624335	-2.04978	1.16797	-0.768335	-1.83132	1.69	-0.515041	-1.98451	0.798624	-0.828151	-2.05765	1.0564	-0.79048	-1.97514	1.01549	-0.605455	-1.93422	0.0879399	-0.696485	-1.91685	0.563131	-0.683608	-1.74439	0.0788891	-0.683602	-1.91521	0.412411	-0.720727	-1.98411	1.47846	-0.694493	-1.97425	0.798107	-0.700301	-1.68457	0.0794387	-0.624311	-2.02991	1.26071	-0.752683	-1.96335	0.863123	-0.782176	-2.03357	0.895155	-0.812856	-2.28099	0.0998908	-0.479638	-2.12777	1.45437	-0.467437	-2.01904	1.65867	-0.484268	-2.21086	1.03166	-0.513816	-2.14172	1.13216	-0.265942	-1.92107	1.69069	-0.408817	-2.06377	0.791978	-0.220678	-2.13002	0.981086	-0.250035	-2.04905	1.03721	-0.401668	-2.31827	0.0524717	-0.534064	-2.20438	0.502996	-0.422891	-2.1821	0.0479677	-0.401487	-2.25433	0.307966	-0.430974	-2.06972	1.48841	-0.352859	-2.19926	0.681378	-0.414136	-2.08048	0.051776	-0.417565	-2.12089	1.36165	-0.290918	-2.01908	0.862897	-0.269053	-2.10014	0.884098	-0.231624	-1.932	1.2617	-0.506547	-2.13565	1.29492	-0.538684
225	1.86667	-2.04159	1.52467	-0.533992	-1.93515	1.44747	-0.501629	-1.88364	0.118273	-0.714193	-1.92939	1.65357	-0.569629	-2.16886	1.03046	-0.624405	-2.0452	1.16702	-0.768455	-1.82439	1.68861	-0.51507	-1.98369	0.797006	-0.828919	-2.054	1.05552	-0.790707	-1.97164	1.01454	-0.605698	-1.92009	0.0870641	-0.696108	-1.91312	0.562672	-0.684499	-1.7302	0.0812187	-0.682125	-1.90838	0.411739	-0.721244	-1.97795	1.47718	-0.69443	-1.97128	0.797601	-0.700923	-1.67087	0.0832981	-0.622348	-2.02489	1.25971	-0.752724	-1.9616	0.86118	-0.782931	-2.03141	0.894183	-0.813503	-2.28036	0.0997755	-0.479945	-2.12153	1.45412	-0.467318	-2.01222	1.65728	-0.484358	-2.20723	1.03143	-0.51386	-2.13589	1.13135	-0.265906	-1.9142	1.68931	-0.408921	-2.05783	0.790966	-0.221699	-2.1241	0.980233	-0.250282	-2.04544	1.03642	-0.401817	-2.31757	0.0519622	-0.534038	-2.20241	0.502645	-0.423001	-2.18054	0.049118	-0.402341	-2.25295	0.30777	-0.431145	-2.06334	1.48761	-0.352777	-2.19669	0.681044	-0.414132	-2.07904	0.0540515	-0.419202	-2.11491	1.36095	-0.290822	-2.01331	0.862067	-0.269953	-2.09418	0.883193	-0.232077	-1.9274	1.25991	-0.506233	-2.13076	1.29479	-0.53878
226	1.875	-2.03473	1.5236	-0.533981	-1.92828	1.44631	-0.501793	-1.87062	0.118223	-0.713975	-1.92246	1.65231	-0.569819	-2.16401	1.03063	-0.62472	-2.04069	1.16605	-0.768697	-1.81736	1.68739	-0.515477	-1.98323	0.795406	-0.829849	-2.05056	1.05463	-0.791052	-1.96701	1.01351	-0.605671	-1.90661	0.0864593	-0.696018	-1.9086	0.562312	-0.685333	-1.71672	0.0837119	-0.680746	-1.90116	0.411232	-0.721786	-1.97173	1.47586	-0.694599	-1.96704	0.797342	-0.701463	-1.65789	0.087098	-0.620491	-2.01992	1.25866	-0.752917	-1.96031	0.859195	-0.783757	-2.02972	0.89313	-0.814232	-2.28035	0.100095	-0.480432	-2.11466	1.45312	-0.467329	-2.00516	1.65604	-0.484393	-2.2026	1.03166	-0.514229	-2.12993	1.13049	-0.266011	-1.90696	1.68807	-0.409168	-2.05131	0.79007	-0.22255	-2.118	0.97933	-0.250583	-2.04086	1.03538	-0.401877	-2.31764	0.0523081	-0.534495	-2.20023	0.502545	-0.423308	-2.1805	0.0494505	-0.40289	-2.25183	0.307961	-0.431535	-2.05656	1.48656	-0.352784	-2.1938	0.680938	-0.414485	-2.079	0.0545396	-0.419929	-2.10848	1.35995	-0.290896	-2.0073	0.861345	-0.270988	-2.08796	0.882248	-0.232582	-1.92069	1.25867	-0.506431	-2.12413	1.29398	-0.538546
227	1.88333	-2.02763	1.52262	-0.533918	-1.92173	1.44455	-0.5018	-1.85729	0.117781	-0.71374	-1.91543	1.65076	-0.570001	-2.15845	1.02957	-0.625178	-2.0356	1.16466	-0.768811	-1.81028	1.68599	-0.515889	-1.98292	0.793298	-0.830461	-2.04672	1.05336	-0.79127	-1.96157	1.0129	-0.604975	-1.89283	0.0854402	-0.695976	-1.90316	0.561455	-0.686161	-1.70304	0.0859731	-0.679338	-1.8932	0.410247	-0.722369	-1.96497	1.47417	-0.69467	-1.96128	0.796624	-0.701586	-1.6448	0.0906487	-0.618554	-2.0143	1.25719	-0.752971	-1.95916	0.856621	-0.784177	-2.02795	0.891675	-0.814771	-2.28052	0.100253	-0.480667	-2.10805	1.45285	-0.466977	-1.99804	1.65439	-0.484373	-2.19768	1.0305	-0.514945	-2.12338	1.12959	-0.265852	-1.89965	1.68658	-0.409413	-2.04468	0.788993	-0.223457	-2.11142	0.978385	-0.250767	-2.03682	1.03458	-0.401648	-2.31798	0.0525815	-0.534684	-2.19774	0.502148	-0.423544	-2.18082	0.0493744	-0.403136	-2.2506	0.307933	-0.431734	-2.04944	1.48567	-0.352523	-2.19044	0.680456	-0.414961	-2.07931	0.0541921	-0.420178	-2.1016	1.35915	-0.290476	-2.00093	0.86038	-0.271967	-2.08137	0.881233	-0.233068	-1.91585	1.25686	-0.50617	-2.11902	1.2937	-0.538652
228	1.89167	-2.02045	1.52119	-0.534082	-1.91507	1.44245	-0.502088	-1.84427	0.118003	-0.713439	-1.9083	1.64894	-0.570379	-2.15464	1.02873	-0.625303	-2.03025	1.16322	-0.769031	-1.8031	1.6842	-0.516389	-1.98254	0.791233	-0.831293	-2.04271	1.0521	-0.791656	-1.95781	1.01211	-0.605494	-1.87938	0.085171	-0.695764	-1.89805	0.561123	-0.686931	-1.68972	0.0885321	-0.678229	-1.88554	0.409852	-0.722891	-1.958	1.47239	-0.694876	-1.95678	0.796257	-0.701952	-1.63194	0.0944598	-0.617103	-2.00844	1.25565	-0.753208	-1.95797	0.854131	-0.784882	-2.02619	0.890209	-0.815512	-2.28073	0.100384	-0.480823	-2.10128	1.4521	-0.46699	-1.99086	1.65262	-0.484654	-2.19363	1.02967	-0.514988	-2.11696	1.12859	-0.265904	-1.89237	1.68486	-0.409849	-2.03842	0.787804	-0.22455	-2.10499	0.977353	-0.251127	-2.03262	1.03356	-0.402098	-2.31847	0.0527793	-0.534714	-2.19553	0.501771	-0.423754	-2.1811	0.0494649	-0.403408	-2.24946	0.307872	-0.431855	-2.04229	1.48452	-0.352677	-2.18733	0.679994	-0.415174	-2.07959	0.0540341	-0.420606	-2.09483	1.35821	-0.29042	-1.99469	0.859212	-0.273027	-2.07492	0.880154	-0.233737	-1.91075	1.25457	-0.506552	-2.11376	1.29316	-0.538696
229	1.9	-2.01294	1.51998	-0.534172	-1.90796	1.44068	-0.502291	-1.83179	0.117914	-0.713024	-1.90095	1.64731	-0.570768	-2.1492	1.02803	-0.625684	-2.0247	1.16191	-0.769286	-1.79557	1.68263	-0.517204	-1.98196	0.789391	-0.8322	-2.03854	1.05094	-0.791991	-1.95253	1.01117	-0.605146	-1.86639	0.0846037	-0.695333	-1.89273	0.56041	-0.687826	-1.67684	0.0909101	-0.677266	-1.87807	0.409068	-0.723432	-1.95074	1.47071	-0.695023	-1.95151	0.795643	-0.70231	-1.61942	0.0980541	-0.615888	-2.00236	1.25425	-0.753397	-1.95655	0.85179	-0.785599	-2.02425	0.888884	-0.816122	-2.28091	0.100595	-0.48097	-2.09409	1.45146	-0.466903	-1.98324	1.65097	-0.484723	-2.1886	1.02897	-0.515536	-2.11036	1.12762	-0.265906	-1.88442	1.68327	-0.410324	-2.03199	0.786693	-0.225285	-2.09842	0.976342	-0.251403	-2.0281	1.03256	-0.402025	-2.31883	0.0530902	-0.534812	-2.19328	0.501481	-0.424087	-2.1814	0.0494179	-0.403602	-2.24838	0.307937	-0.432089	-2.03483	1.48345	-0.352651	-2.1841	0.679634	-0.415598	-2.07988	0.0537655	-0.420901	-2.08777	1.35726	-0.290323	-1.98833	0.858055	-0.273882	-2.06838	0.879101	-0.234256	-1.90492	1.25272	-0.506533	-2.10775	1.29261	-0.538747
230	1.90833	-2.00522	1.51857	-0.534357	-1.90064	1.43876	-0.502573	-1.81976	0.118113	-0.712761	-1.89338	1.6456	-0.571196	-2.14408	1.02734	-0.625931	-2.0189	1.16038	-0.769637	-1.78783	1.6809	-0.517974	-1.98131	0.787366	-0.833295	-2.03415	1.04958	-0.792467	-1.94753	1.01006	-0.605256	-1.85393	0.0843951	-0.69508	-1.88705	0.559838	-0.68834	-1.66451	0.0931039	-0.676551	-1.87045	0.408561	-0.723715	-1.94331	1.46883	-0.695243	-1.94648	0.795002	-0.702711	-1.60741	0.101115	-0.614946	-1.99607	1.25264	-0.753668	-1.95507	0.849274	-0.786522	-2.02223	0.887373	-0.81694	-2.28101	0.100847	-0.4813	-2.0867	1.45063	-0.466922	-1.97545	1.6493	-0.484916	-2.18358	1.02832	-0.515824	-2.10349	1.12653	-0.266016	-1.87637	1.68158	-0.41082	-2.02539	0.78545	-0.225825	-2.09177	0.975204	-0.251672	-2.02317	1.03137	-0.402164	-2.31914	0.0535694	-0.535204	-2.19054	0.501092	-0.424606	-2.18211	0.0490223	-0.403615	-2.24699	0.307994	-0.432533	-2.02722	1.48228	-0.352754	-2.18053	0.679128	-0.416097	-2.08051	0.0526603	-0.420599	-2.08055	1.35621	-0.290342	-1.98198	0.856822	-0.274618	-2.06186	0.877865	-0.234669	-1.8988	1.25073	-0.506672	-2.10151	1.29189	-0.538723
231	1.91667	-1.99761	1.51712	-0.534667	-1.89345	1.43678	-0.502964	-1.80819	0.118559	-0.712721	-1.88583	1.64377	-0.571699	-2.1394	1.02669	-0.626275	-2.01336	1.15885	-0.770119	-1.78028	1.67919	-0.518595	-1.9803	0.785417	-0.834526	-2.02981	1.04824	-0.793141	-1.94293	1.00905	-0.605734	-1.84198	0.0844371	-0.695098	-1.88123	0.559471	-0.688631	-1.65272	0.0953926	-0.676211	-1.86278	0.408318	-0.723938	-1.9361	1.46691	-0.695633	-1.94132	0.79454	-0.702995	-1.59588	0.104135	-0.614461	-1.99005	1.25102	-0.754071	-1.95316	0.846999	-0.787857	-2.0199	0.88594	-0.818056	-2.28132	0.101397	-0.481734	-2.07946	1.44973	-0.467084	-1.96786	1.64755	-0.485375	-2.17881	1.02768	-0.516133	-2.09664	1.12535	-0.266324	-1.86875	1.67996	-0.411382	-2.01877	0.784146	-0.226469	-2.08505	0.974004	-0.252053	-2.01824	1.03015	-0.402607	-2.31984	0.0546657	-0.535874	-2.18732	0.500736	-0.425276	-2.18402	0.0480433	-0.403123	-2.24549	0.308242	-0.433125	-2.01977	1.48101	-0.352993	-2.17668	0.678572	-0.41676	-2.08223	0.0497465	-0.419098	-2.07346	1.35505	-0.290502	-1.97555	0.855495	-0.275439	-2.05523	0.876603	-0.23513	-1.8928	1.24873	-0.507184	-2.09542	1.29115	-0.538795
232	1.925	-1.98989	1.51582	-0.534931	-1.88593	1.43516	-0.503328	-1.79702	0.118488	-0.712782	-1.87809	1.64212	-0.572189	-2.13297	1.02594	-0.626752	-2.00792	1.15757	-0.770631	-1.77259	1.6778	-0.519162	-1.9789	0.783828	-0.83582	-2.02541	1.0471	-0.793766	-1.93672	1.00807	-0.604959	-1.83041	0.0839602	-0.695184	-1.87503	0.558722	-0.689253	-1.64135	0.0973621	-0.676033	-1.85507	0.407601	-0.724449	-1.92915	1.46522	-0.695994	-1.93482	0.79392	-0.702959	-1.58474	0.107008	-0.614171	-1.98418	1.24963	-0.754473	-1.95089	0.844973	-0.789118	-2.01722	0.88479	-0.819079	-2.2811	0.101718	-0.482062	-2.07189	1.4488	-0.46719	-1.96012	1.64579	-0.48581	-2.17306	1.02692	-0.516871	-2.08977	1.12441	-0.266431	-1.86101	1.67845	-0.411925	-2.01227	0.783028	-0.227194	-2.07828	0.973024	-0.252344	-2.01325	1.02915	-0.402328	-2.31975	0.055153	-0.536225	-2.18474	0.500517	-0.425876	-2.18418	0.0478733	-0.403226	-2.24412	0.308417	-0.433633	-2.01203	1.47988	-0.353155	-2.17308	0.678239	-0.417446	-2.08235	0.0489718	-0.419086	-2.06609	1.35405	-0.290597	-1.96909	0.85429	-0.276313	-2.04853	0.875582	-0.235592	-1.8861	1.24704	-0.507292	-2.08863	1.29031	-0.538879
